<svg width="512" height="512" viewBox="0 0 100 100" fill="none" xmlns="http://www.w3.org/2000/svg">
  <defs>
    <linearGradient id="grad_ai" x1="0" y1="0" x2="1" y2="1">
      <stop offset="0" stop-color="#0077B6" stop-opacity="1" />
      <stop offset="1" stop-color="#00B4D8" stop-opacity="1" />
    </linearGradient>
    <linearGradient id="grad_pulse" x1="0" y1="0" x2="1" y2="0">
      <stop offset="0" stop-color="#E76F51" stop-opacity="1" />
      <stop offset="1" stop-color="#FFCCBC" stop-opacity="1" />
    </linearGradient>
  </defs>

  <!-- Left Circuit Lobe -->
  <path
    d="M50 90 L35 75 Q10 50 10 30 A15 15 0 0 1 40 15 A15 15 0 0 1 50 25"
    stroke="url(#grad_ai)"
    stroke-width="4"
    stroke-linecap="round"
    fill="none"
  />
  <!-- Right Circuit Lobe -->
  <path
    d="M50 90 L65 75 Q90 50 90 30 A15 15 0 0 1 60 15 A15 15 0 0 1 50 25"
    stroke="url(#grad_ai)"
    stroke-width="4"
    stroke-linecap="round"
    fill="none"
  />
  
  <!-- Circuit Nodes (Dots) -->
  <circle cx="50" cy="90" r="3" fill="#0077B6" />
  <circle cx="50" cy="25" r="3" fill="#00B4D8" />
  <circle cx="10" cy="30" r="3" fill="#0077B6" />
  <circle cx="90" cy="30" r="3" fill="#0077B6" />

  <!-- Digital/AI Network Overlay -->
  <g opacity="0.8">
    <path 
      d="M30 45 L50 35 L70 45" 
      stroke="url(#grad_ai)" 
      stroke-width="1.5" 
      stroke-dasharray="2,2"
    />
    <path 
      d="M50 35 L50 65" 
      stroke="url(#grad_ai)" 
      stroke-width="1.5" 
      stroke-dasharray="2,2"
    />
    <circle cx="30" cy="45" r="2" fill="#00B4D8" />
    <circle cx="70" cy="45" r="2" fill="#00B4D8" />
    <circle cx="50" cy="35" r="2.5" fill="#00B4D8" />
  </g>

  <!-- Digital Pulse Line -->
  <path
    d="M25 60 H38 L45 45 L55 75 L62 60 H75"
    stroke="url(#grad_pulse)"
    stroke-width="3"
    stroke-linecap="round"
    stroke-linejoin="round"
  />
</svg>